<svg width="167" height="167" viewBox="0 0 167 167" fill="none" xmlns="http://www.w3.org/2000/svg">
<rect width="167" height="167" rx="20" fill="#3A3752"/>
<path d="M42 18H102C106.971 18 111 22.0294 111 27V113C111 117.971 106.971 122 102 122H42C37.0294 122 33 117.971 33 113V27C33 22.0294 37.0294 18 42 18Z" fill="#F2DAB3" stroke="black" stroke-width="2"/>
<line x1="40.0116" y1="40.6525" x2="66.7791" y2="40.6525" stroke="black" stroke-width="3" stroke-linecap="round"/>
<line x1="83.7326" y1="40.6525" x2="94.6861" y2="40.6525" stroke="black" stroke-width="3" stroke-linecap="round"/>
<line x1="40.0116" y1="53.2288" x2="88.1744" y2="53.2288" stroke="black" stroke-width="3" stroke-linecap="round"/>
<path d="M53.1458 77.0468H39.8504V74.2343H53.1458C54.3731 74.2343 55.3873 74.0212 56.1885 73.5951C56.9896 73.1604 57.5862 72.5724 57.9782 71.8309C58.3703 71.0809 58.5663 70.2286 58.5663 69.2741C58.5663 68.3195 58.3703 67.4715 57.9782 66.73C57.5862 65.98 56.9896 65.392 56.1885 64.9658C55.3873 64.5312 54.3731 64.3138 53.1458 64.3138H47.1629V87.6832H43.9924V61.5013H53.1458C55.089 61.5013 56.6913 61.855 57.9527 62.5624C59.214 63.2698 60.1515 64.2116 60.7652 65.3877C61.3788 66.5638 61.6856 67.8593 61.6856 69.2741C61.6856 70.6888 61.3788 71.9843 60.7652 73.1604C60.1515 74.3366 59.214 75.2783 57.9527 75.9857C56.6913 76.6931 55.089 77.0468 53.1458 77.0468ZM52.9413 79.5013V82.3138H39.8504V79.5013H52.9413Z" fill="black"/>
<rect x="24" y="95" width="54" height="11" rx="5.5" fill="#F59A02" stroke="black" stroke-width="2"/>
<rect x="24" y="108" width="54" height="11" rx="5.5" fill="#F59A02" stroke="black" stroke-width="2"/>
<rect x="24" y="121" width="54" height="11" rx="5.5" fill="#F59A02" stroke="black" stroke-width="2"/>
<rect x="24" y="134" width="54" height="11" rx="5.5" fill="#F59A02" stroke="black" stroke-width="2"/>
<rect x="24" y="147" width="54" height="11" rx="5.5" fill="#F59A02" stroke="black" stroke-width="2"/>
<circle cx="28.2632" cy="138.737" r="22.2632" fill="#F59A02" stroke="black" stroke-width="2"/>
<circle cx="33.7368" cy="138.737" r="22.2632" fill="#F59A02" stroke="black" stroke-width="2"/>
<line x1="9.7258" y1="126.347" x2="15.1995" y2="127.259" stroke="black" stroke-width="2"/>
<line x1="7.90125" y1="130.908" x2="13.3749" y2="131.821" stroke="black" stroke-width="2"/>
<line x1="6.0506" y1="136.378" x2="11.5464" y2="137.146" stroke="black" stroke-width="2"/>
<line x1="5.95042" y1="141.149" x2="11.4897" y2="141.481" stroke="black" stroke-width="2"/>
<line x1="6.84763" y1="145.583" x2="12.3948" y2="145.733" stroke="black" stroke-width="2"/>
<line x1="9.29608" y1="150.427" x2="14.8034" y2="149.746" stroke="black" stroke-width="2"/>
<path d="M36.625 141.364H23.3295V138.551H36.625C37.8523 138.551 38.8665 138.338 39.6676 137.912C40.4688 137.477 41.0653 136.889 41.4574 136.148C41.8494 135.398 42.0455 134.545 42.0455 133.591C42.0455 132.636 41.8494 131.788 41.4574 131.047C41.0653 130.297 40.4688 129.709 39.6676 129.283C38.8665 128.848 37.8523 128.631 36.625 128.631H30.642V152H27.4716V125.818H36.625C38.5682 125.818 40.1705 126.172 41.4318 126.879C42.6932 127.587 43.6307 128.528 44.2443 129.705C44.858 130.881 45.1648 132.176 45.1648 133.591C45.1648 135.006 44.858 136.301 44.2443 137.477C43.6307 138.653 42.6932 139.595 41.4318 140.303C40.1705 141.01 38.5682 141.364 36.625 141.364ZM36.4205 143.818V146.631H23.3295V143.818H36.4205Z" fill="black"/>
<rect x="84" y="66" width="72.5122" height="92" rx="16" fill="#FF6AD0" stroke="black" stroke-width="2"/>
<rect x="96.6098" y="77.4634" width="47.2927" height="15.1951" rx="4" fill="#DCE6FF" stroke="black" stroke-width="2"/>
<rect x="96.1098" y="104.476" width="10.4634" height="10.4634" rx="1.5" fill="#742DBB" stroke="black"/>
<rect x="96.1098" y="123.963" width="10.4634" height="10.4634" rx="1.5" fill="#742DBB" stroke="black"/>
<rect x="115.598" y="104.476" width="10.4634" height="10.4634" rx="1.5" fill="#742DBB" stroke="black"/>
<rect x="115.598" y="123.963" width="10.4634" height="10.4634" rx="1.5" fill="#742DBB" stroke="black"/>
<rect x="133.939" y="104.476" width="10.4634" height="10.4634" rx="1.5" fill="#742DBB" stroke="black"/>
<rect x="133.939" y="123.963" width="10.4634" height="10.4634" rx="1.5" fill="#742DBB" stroke="black"/>
<rect x="96.1098" y="140.012" width="48.2927" height="10.4634" rx="1.5" fill="#3A3752" stroke="black"/>
<path d="M106.56 88V87.3636L108.528 85.3239C108.739 85.1023 108.912 84.9081 109.048 84.7415C109.187 84.5729 109.29 84.4129 109.358 84.2614C109.426 84.1098 109.46 83.9489 109.46 83.7784C109.46 83.5852 109.415 83.4186 109.324 83.2784C109.233 83.1364 109.109 83.0275 108.952 82.9517C108.795 82.8741 108.617 82.8352 108.42 82.8352C108.212 82.8352 108.03 82.8778 107.875 82.9631C107.72 83.0483 107.6 83.1686 107.517 83.3239C107.434 83.4792 107.392 83.661 107.392 83.8693H106.554C106.554 83.5152 106.635 83.2055 106.798 82.9403C106.961 82.6752 107.185 82.4697 107.469 82.3239C107.753 82.1761 108.076 82.1023 108.438 82.1023C108.803 82.1023 109.125 82.1752 109.403 82.321C109.684 82.465 109.902 82.6619 110.06 82.9119C110.217 83.16 110.295 83.4403 110.295 83.7528C110.295 83.9688 110.255 84.1799 110.173 84.3864C110.094 84.5928 109.955 84.8229 109.756 85.0767C109.557 85.3286 109.28 85.6345 108.926 85.9943L107.77 87.2045V87.2472H110.389V88H106.56ZM113.491 88.0966C113.043 88.0947 112.659 87.9763 112.341 87.7415C112.023 87.5066 111.779 87.1648 111.611 86.7159C111.442 86.267 111.358 85.7263 111.358 85.0938C111.358 84.4631 111.442 83.9242 111.611 83.4773C111.781 83.0303 112.026 82.6894 112.344 82.4545C112.664 82.2197 113.046 82.1023 113.491 82.1023C113.937 82.1023 114.318 82.2206 114.636 82.4574C114.955 82.6922 115.198 83.0331 115.366 83.4801C115.537 83.9252 115.622 84.4631 115.622 85.0938C115.622 85.7282 115.538 86.2699 115.369 86.7188C115.201 87.1657 114.957 87.5076 114.639 87.7443C114.321 87.9792 113.938 88.0966 113.491 88.0966ZM113.491 87.3381C113.885 87.3381 114.193 87.1458 114.415 86.7614C114.638 86.3769 114.75 85.821 114.75 85.0938C114.75 84.6108 114.699 84.2027 114.597 83.8693C114.496 83.5341 114.351 83.2803 114.162 83.108C113.974 82.9337 113.751 82.8466 113.491 82.8466C113.099 82.8466 112.792 83.0398 112.568 83.4261C112.345 83.8125 112.232 84.3684 112.23 85.0938C112.23 85.5786 112.28 85.9886 112.381 86.3239C112.483 86.6572 112.628 86.91 112.815 87.0824C113.003 87.2528 113.228 87.3381 113.491 87.3381ZM116.63 88V87.3636L118.599 85.3239C118.809 85.1023 118.982 84.9081 119.119 84.7415C119.257 84.5729 119.36 84.4129 119.428 84.2614C119.496 84.1098 119.531 83.9489 119.531 83.7784C119.531 83.5852 119.485 83.4186 119.394 83.2784C119.303 83.1364 119.179 83.0275 119.022 82.9517C118.865 82.8741 118.688 82.8352 118.491 82.8352C118.282 82.8352 118.101 82.8778 117.945 82.9631C117.79 83.0483 117.671 83.1686 117.587 83.3239C117.504 83.4792 117.462 83.661 117.462 83.8693H116.624C116.624 83.5152 116.706 83.2055 116.869 82.9403C117.031 82.6752 117.255 82.4697 117.539 82.3239C117.823 82.1761 118.146 82.1023 118.508 82.1023C118.873 82.1023 119.195 82.1752 119.474 82.321C119.754 82.465 119.973 82.6619 120.13 82.9119C120.287 83.16 120.366 83.4403 120.366 83.7528C120.366 83.9688 120.325 84.1799 120.244 84.3864C120.164 84.5928 120.025 84.8229 119.826 85.0767C119.627 85.3286 119.351 85.6345 118.996 85.9943L117.84 87.2045V87.2472H120.46V88H116.63ZM121.536 88V87.3636L123.505 85.3239C123.715 85.1023 123.888 84.9081 124.025 84.7415C124.163 84.5729 124.266 84.4129 124.335 84.2614C124.403 84.1098 124.437 83.9489 124.437 83.7784C124.437 83.5852 124.391 83.4186 124.3 83.2784C124.21 83.1364 124.085 83.0275 123.928 82.9517C123.771 82.8741 123.594 82.8352 123.397 82.8352C123.189 82.8352 123.007 82.8778 122.852 82.9631C122.696 83.0483 122.577 83.1686 122.494 83.3239C122.41 83.4792 122.369 83.661 122.369 83.8693H121.531C121.531 83.5152 121.612 83.2055 121.775 82.9403C121.938 82.6752 122.161 82.4697 122.445 82.3239C122.729 82.1761 123.052 82.1023 123.414 82.1023C123.78 82.1023 124.102 82.1752 124.38 82.321C124.66 82.465 124.879 82.6619 125.036 82.9119C125.193 83.16 125.272 83.4403 125.272 83.7528C125.272 83.9688 125.231 84.1799 125.15 84.3864C125.07 84.5928 124.931 84.8229 124.732 85.0767C124.533 85.3286 124.257 85.6345 123.903 85.9943L122.746 87.2045V87.2472H125.366V88H121.536ZM128.65 82.1818V88H127.769V83.0625H127.735L126.343 83.9716V83.1307L127.795 82.1818H128.65ZM130.224 88V87.3636L132.192 85.3239C132.403 85.1023 132.576 84.9081 132.712 84.7415C132.851 84.5729 132.954 84.4129 133.022 84.2614C133.09 84.1098 133.124 83.9489 133.124 83.7784C133.124 83.5852 133.079 83.4186 132.988 83.2784C132.897 83.1364 132.773 83.0275 132.616 82.9517C132.459 82.8741 132.281 82.8352 132.085 82.8352C131.876 82.8352 131.694 82.8778 131.539 82.9631C131.384 83.0483 131.264 83.1686 131.181 83.3239C131.098 83.4792 131.056 83.661 131.056 83.8693H130.218C130.218 83.5152 130.299 83.2055 130.462 82.9403C130.625 82.6752 130.849 82.4697 131.133 82.3239C131.417 82.1761 131.74 82.1023 132.102 82.1023C132.467 82.1023 132.789 82.1752 133.067 82.321C133.348 82.465 133.567 82.6619 133.724 82.9119C133.881 83.16 133.96 83.4403 133.96 83.7528C133.96 83.9688 133.919 84.1799 133.837 84.3864C133.758 84.5928 133.619 84.8229 133.42 85.0767C133.221 85.3286 132.944 85.6345 132.59 85.9943L131.434 87.2045V87.2472H134.053V88H130.224Z" fill="black"/>
</svg>
